<svg xmlns="http://www.w3.org/2000/svg" width="23.088" height="20.015" viewBox="0 0 23.088 20.015">
  <g id="camera" transform="translate(0 -0.003)">
    <path id="Path_32" data-name="Path 32" d="M11.541,20.018H2.933A2.815,2.815,0,0,1,0,17.079V6.015A2.816,2.816,0,0,1,2.94,3.085c.986,0,1.972,0,2.958,0,.163,0,.241-.041.288-.2.1-.353.224-.7.352-1.046a2.775,2.775,0,0,1,2.6-1.83q2.4-.013,4.81,0a2.771,2.771,0,0,1,2.6,1.834c.123.33.236.664.335,1a.285.285,0,0,0,.331.246c.994-.013,1.988-.007,2.982-.006a2.81,2.81,0,0,1,2.887,2.886q0,5.58,0,11.16A2.81,2.81,0,0,1,20.2,20.017q-4.329,0-8.657,0Zm0-1.539h8.607a1.282,1.282,0,0,0,1.394-1.388q0-5.543,0-11.085A1.278,1.278,0,0,0,20.17,4.624q-1.827,0-3.654,0a.785.785,0,0,1-.858-.617c-.173-.507-.338-1.018-.509-1.526a1.267,1.267,0,0,0-1.3-.935q-2.3,0-4.592,0a1.27,1.27,0,0,0-1.326.965c-.161.478-.319.957-.479,1.434a.819.819,0,0,1-.935.679H2.958A1.286,1.286,0,0,0,1.54,6.036V17.049a1.289,1.289,0,0,0,1.424,1.43h8.583Z" transform="translate(0 0)" fill="#5a5a5a"/>
    <path id="Path_33" data-name="Path 33" d="M89.85,89.709a5.771,5.771,0,1,1,5.766,5.766A5.775,5.775,0,0,1,89.85,89.709Zm10,0a4.232,4.232,0,1,0-4.223,4.226,4.237,4.237,0,0,0,4.223-4.226Z" transform="translate(-84.078 -78.536)" fill="#5a5a5a"/>
    <path id="Path_34" data-name="Path 34" d="M289.039,96.7a.769.769,0,1,1-.743-.789.775.775,0,0,1,.743.789Z" transform="translate(-269.032 -89.75)" fill="#5a5a5a"/>
  </g>
</svg>
