<svg xmlns="http://www.w3.org/2000/svg" width="27" height="24" viewBox="0 0 27 24">
  <g id="Layer_1-2" transform="translate(-0.016 0)">
    <path id="Path_25" data-name="Path 25" d="M27.016,6.9c-.087.295-.185.587-.257.886-.3,1.251-.6,2.5-.888,3.759-.276,1.2-.528,2.4-.811,3.6A1.962,1.962,0,0,1,23.1,16.713c-3.268.008-6.536,0-9.8,0-1.853,0-3.707,0-5.56.015a.8.8,0,0,0-.8.834.841.841,0,0,0,.766.9c.132,0,.263.011.4.011H23.543a.859.859,0,0,1,.943.721.8.8,0,0,1-.528.817,2.865,2.865,0,0,1,.142,2.061,2.673,2.673,0,0,1-.907,1.314,2.769,2.769,0,0,1-3.293.137,2.8,2.8,0,0,1-.961-3.464H14a2.993,2.993,0,0,1-.06,2.414,2.686,2.686,0,0,1-1.192,1.2,2.741,2.741,0,0,1-2.95-.229,2.777,2.777,0,0,1-.856-3.352c-.324,0-.634,0-.944,0a2.532,2.532,0,0,1-2.358-1.331,2.394,2.394,0,0,1,.247-2.709,2.573,2.573,0,0,1,1.208-.821,3.74,3.74,0,0,1,.627-.107c-.18-.657-.354-1.287-.524-1.917-.3-1.11-.6-2.222-.9-3.332C5.95,8.582,5.595,7.3,5.247,6.007S4.564,3.458,4.223,2.183c-.018-.065-.028-.133-.047-.2-.108-.365-.163-.4-.544-.406-.949,0-1.9,0-2.846,0A.785.785,0,0,1,.717.01C.814.007.91,0,1.007,0c.87,0,1.74,0,2.609,0a1.987,1.987,0,0,1,2.1,1.6c.294,1.077.572,2.158.868,3.279.5,0,1.01,0,1.518,0q5.3.017,10.592.036,3.367.014,6.735.041a1.613,1.613,0,0,1,1.538,1.209.661.661,0,0,0,.052.1V6.9Zm-9.7-.359-.042.046v3.442h2.992c.155-1.168.309-2.333.462-3.487H17.316ZM7.04,6.457a1.287,1.287,0,0,0,.022.182c.288,1.051.59,2.1.857,3.154.056.22.142.252.33.25.675-.007,1.351,0,2.027,0h.766c-.023-.235-.037-.439-.066-.641-.063-.447-.139-.891-.2-1.339-.061-.466-.1-.935-.163-1.4-.015-.116-.068-.185-.22-.183-.64,0-1.279-.012-1.919-.017-.473,0-.946,0-1.438,0Zm5.141.055c.152,1.16.3,2.32.46,3.5h3.031v-3.5H12.18Zm9.684,3.506H24.61c.27-1.174.536-2.324.8-3.478H22.328C22.173,7.7,22.019,8.854,21.864,10.018ZM11.724,15.133c-.019-.22-.029-.425-.056-.626-.063-.465-.139-.927-.2-1.392-.059-.441-.1-.883-.163-1.323a.191.191,0,0,0-.225-.181c-.632.011-1.263,0-1.895,0h-.73a.58.58,0,0,0,0,.081c.28,1.051.552,2.1.854,3.149a.486.486,0,0,0,.356.275c.681.027,1.364.013,2.062.013Zm1.6-.009h2.349V11.633H12.865C13.02,12.805,13.171,13.957,13.325,15.124Zm3.956-3.5v3.5h2.309q.232-1.741.468-3.5H17.282Zm3.908,3.512h1.876a.453.453,0,0,0,.464-.4c.237-1.03.466-2.061.7-3.1H21.652c-.154,1.171-.306,2.322-.462,3.5Zm.247,7.26a1.163,1.163,0,1,0-1.166-1.178c-.017.646.635,1.277,1.166,1.178Zm-8.813-1.157c0-.732-.461-1.136-1.263-1.161a1.164,1.164,0,1,0,.152,2.324,1.137,1.137,0,0,0,1.111-1.163Z" transform="translate(0)" fill="#fff"/>
    <path id="Path_26" data-name="Path 26" d="M245.66,93.2l-.59.65Z" transform="translate(-228.146 -86.824)" fill="#fff"/>
  </g>
</svg>
