<svg xmlns="http://www.w3.org/2000/svg" width="24" height="24" viewBox="0 0 24 24">
  <g id="chat_1_" data-name="chat (1)" transform="translate(0 -0.002)">
    <path id="Path_318" data-name="Path 318" d="M0,2.595c.052-.191.094-.385.157-.573A2.959,2.959,0,0,1,3.018,0Q7.009,0,11,0c1.751,0,3.5,0,5.252,0a2.941,2.941,0,0,1,2.923,2.325,3.243,3.243,0,0,1,.073.711q.007,4.362,0,8.723a2.96,2.96,0,0,1-3.056,3.048q-5.252,0-10.5,0a.594.594,0,0,0-.416.145q-1.913,1.607-3.837,3.2a1.875,1.875,0,0,1-.479.311A.736.736,0,0,1,0,17.913Q0,10.253,0,2.595ZM1.481,16.184c.1-.081.161-.127.219-.175.954-.795,1.91-1.586,2.859-2.386a1.208,1.208,0,0,1,.823-.3q5.367.008,10.734,0a1.5,1.5,0,0,0,1.654-1.647V3.148a1.508,1.508,0,0,0-1.66-1.663H3.155A1.511,1.511,0,0,0,1.481,3.158V16.184Z" transform="translate(0 0)" fill="#fff"/>
    <path id="Path_319" data-name="Path 319" d="M119.2,120.009a5.569,5.569,0,0,1-.542-.34c-1.04-.824-2.07-1.658-3.112-2.479a.684.684,0,0,0-.391-.137c-3.27-.008-6.54,0-9.81-.007a2.908,2.908,0,0,1-2.947-2.315,6.359,6.359,0,0,1-.071-1.494.7.7,0,0,1,.735-.631.733.733,0,0,1,.722.678c.016.23.005.463.006.694a1.493,1.493,0,0,0,1.6,1.587q5,0,9.995,0a1.371,1.371,0,0,1,.928.332c.7.573,1.406,1.13,2.111,1.694.045.037.094.068.176.127V105.352a1.5,1.5,0,0,0-1.506-1.634.74.74,0,1,1,.067-1.478,2.974,2.974,0,0,1,2.914,2.791c.006.123.006.247.006.37q0,6.814.006,13.628a.934.934,0,0,1-.562.98H119.2Z" transform="translate(-96.087 -96.007)" fill="#fff"/>
    <path id="Path_320" data-name="Path 320" d="M81.867,76.665c1.457,0,2.914,0,4.371,0a.735.735,0,0,1,.74.983.717.717,0,0,1-.639.492,2.05,2.05,0,0,1-.231,0H77.573a1.611,1.611,0,0,1-.322-.018A.737.737,0,0,1,77.4,76.67c.917-.007,1.835,0,2.752,0h1.711Z" transform="translate(-72.117 -72.158)" fill="#fff"/>
    <path id="Path_321" data-name="Path 321" d="M80.323,129.248c-.979,0-1.958.005-2.937,0a.734.734,0,0,1-.705-1.023.724.724,0,0,1,.715-.455q1.075,0,2.151,0c1.233,0,2.467,0,3.7,0a.741.741,0,1,1-.01,1.479H80.323Z" transform="translate(-72.096 -120.258)" fill="#fff"/>
  </g>
</svg>
