<svg xmlns="http://www.w3.org/2000/svg" width="28" height="23.91" viewBox="0 0 28 23.91">
  <g id="language_1_" data-name="language (1)" transform="translate(0.005 0.001)">
    <path id="Path_322" data-name="Path 322" d="M24.8,21.316c0,.416-.006.811,0,1.206a1.279,1.279,0,0,1-2.249.927c-.636-.643-1.283-1.275-1.914-1.922a.685.685,0,0,0-.544-.23q-3.324.013-6.647,0a3.153,3.153,0,0,1-3.177-2.452,3.851,3.851,0,0,1-.086-.856c-.009-1.213,0-2.424,0-3.637V14H9.573c-.775,0-1.55.006-2.325,0a.42.42,0,0,0-.392.2c-.432.606-.879,1.2-1.321,1.8a1.261,1.261,0,0,1-1.456.529A1.247,1.247,0,0,1,3.2,15.256c-.006-.406,0-.812,0-1.194a8.333,8.333,0,0,1-1.251-.339,3.068,3.068,0,0,1-1.932-2.96q-.033-3.771,0-7.543A3.165,3.165,0,0,1,3.281,0Q8.915,0,14.548,0a3.176,3.176,0,0,1,3.266,3.282c0,1.222,0,2.444,0,3.667v.369h.364c2.176,0,4.351,0,6.527,0a3.156,3.156,0,0,1,3.209,2.523,3.837,3.837,0,0,1,.076.8q.008,3.667,0,7.334a3.184,3.184,0,0,1-2.664,3.281c-.155.028-.315.035-.525.057Zm-1.267,1.323v-1.5c0-1,.1-1.105,1.108-1.107a1.905,1.905,0,0,0,2.066-2.056q0-3.667,0-7.333a1.9,1.9,0,0,0-2.062-2.059H13.533a1.923,1.923,0,0,0-2.081,2.08q0,3.637,0,7.273a1.928,1.928,0,0,0,2.1,2.094c2.325,0,4.649,0,6.974,0a.913.913,0,0,1,.714.3c.308.324.631.634.946.951l1.354,1.362ZM10.6,8.918c-.167-.009-.263-.018-.359-.018-.885,0-1.768.008-2.653-.006a.384.384,0,0,0-.416.279c-.271.629-.562,1.248-.847,1.871a.615.615,0,0,1-.607.4.543.543,0,0,1-.56-.409,1.079,1.079,0,0,1,.071-.624C6.234,8.165,7.258,5.927,8.27,3.685a.7.7,0,0,1,.634-.5c.343,0,.523.22.656.515.584,1.3,1.179,2.6,1.771,3.9.048.106.1.208.166.335a3.55,3.55,0,0,1,2.358-.622c.784.021,1.569.006,2.354,0,.105,0,.209-.01.318-.015.008-.082.018-.13.018-.178,0-1.3,0-2.6,0-3.905a2.128,2.128,0,0,0-.08-.557A1.906,1.906,0,0,0,14.51,1.268q-4.65,0-9.3,0c-.666,0-1.331-.011-2,0A1.867,1.867,0,0,0,1.3,3.109Q1.269,7,1.3,10.89A1.848,1.848,0,0,0,3.1,12.709c.218.01.437,0,.655.007a.65.65,0,0,1,.7.711c0,.4,0,.795,0,1.193v.6c.563-.674,1.079-1.342,1.558-2.036a1.02,1.02,0,0,1,.955-.472c.884.02,1.768.006,2.652.006h.557c0-.655.015-1.279,0-1.9a3.884,3.884,0,0,1,.418-1.9ZM8.911,5.353,7.887,7.615H9.941C9.6,6.862,9.268,6.136,8.911,5.353Z" transform="translate(0 0)" fill="#fff"/>
    <path id="Path_323" data-name="Path 323" d="M195.045,129.84c0-.411,0-.787,0-1.163,0-.475.23-.743.624-.748s.644.278.646.76c0,.368,0,.737,0,1.15h.332c.708,0,1.415,0,2.123,0,.455,0,.717.231.725.615s-.264.644-.721.655c-.079,0-.157.007-.26.011a5.846,5.846,0,0,1-1.687,3.447,4.163,4.163,0,0,0,1.551.367,1.926,1.926,0,0,1,.327.026.641.641,0,0,1,.49.72.592.592,0,0,1-.622.525,5.488,5.488,0,0,1-2.639-.652.458.458,0,0,0-.49,0,5.394,5.394,0,0,1-2.549.649.667.667,0,0,1-.751-.634c-.009-.368.276-.622.714-.634a4.447,4.447,0,0,0,1.63-.34c-.33-.462-.653-.909-.971-1.362a1.6,1.6,0,0,1-.164-.318.636.636,0,0,1,.294-.84.615.615,0,0,1,.841.28,4.782,4.782,0,0,0,1.155,1.5,4.067,4.067,0,0,0,1.554-2.746h-.326c-1.435,0-2.87,0-4.3,0a.635.635,0,0,1-.679-.839.617.617,0,0,1,.645-.431c.717,0,1.435,0,2.152,0h.357Z" transform="translate(-176.598 -117.762)" fill="#fff"/>
  </g>
</svg>
