<svg xmlns="http://www.w3.org/2000/svg" width="14.733" height="20" viewBox="0 0 14.733 20">
  <g id="mic" transform="translate(0.001 -0.001)">
    <path id="Path_35" data-name="Path 35" d="M67.336,6.761c0,1.041,0,2.081,0,3.122A3.5,3.5,0,0,1,64.3,13.448a3.815,3.815,0,0,1-3.706-1.2,3.308,3.308,0,0,1-.847-2.177c-.013-2.215-.024-4.43,0-6.645A3.535,3.535,0,0,1,63.185,0a4.34,4.34,0,0,1,2.05.313,3.44,3.44,0,0,1,2.091,3.144c.039,1.1.008,2.2.008,3.3Z" transform="translate(-56.171 0)" fill="#5a5a5a"/>
    <path id="Path_36" data-name="Path 36" d="M6.639,149.477a7.4,7.4,0,0,1-6.592-6.5A6.769,6.769,0,0,1,0,142.152a.689.689,0,0,1,.665-.723.707.707,0,0,1,.754.663c.038.369.043.743.1,1.108a5.937,5.937,0,0,0,11.655.162,8.65,8.65,0,0,0,.128-1.193.732.732,0,0,1,.618-.734.7.7,0,0,1,.81.73,7.21,7.21,0,0,1-2.426,5.432,7.236,7.236,0,0,1-4.212,1.885v2.084h.241c.691,0,1.383,0,2.074,0a.714.714,0,1,1-.007,1.426q-3.033,0-6.066,0a.716.716,0,1,1,0-1.427c.684,0,1.368,0,2.052,0h.253v-2.088Z" transform="translate(0 -132.992)" fill="#5a5a5a"/>
  </g>
</svg>
