<svg xmlns="http://www.w3.org/2000/svg" width="29.451" height="24" viewBox="0 0 29.451 24">
  <g id="Nagarro_Horizontal_Petrol_Black_2_" data-name="Nagarro Horizontal Petrol Black (2)" transform="translate(-92.9 -279.192)">
    <path id="Path_24" data-name="Path 24" d="M114.962,303.191c-3.058,0-6.953-1.982-10.344-5.315a11.8,11.8,0,0,1-.527,1.237c-1.168,2.383-2.852,3.688-4.731,3.688s-3.585-1.283-4.777-3.608a17.988,17.988,0,0,1-1.684-8.018c0-4.96,1.638-9.152,4.284-10.928a7.1,7.1,0,0,1,6.667-.447,19.778,19.778,0,0,1,6.724,4.628,11.487,11.487,0,0,1,.733-1.569c1.191-2.108,2.852-3.265,4.674-3.265,3.631,0,6.369,4.983,6.369,11.592a18.253,18.253,0,0,1-1.512,7.618,9.717,9.717,0,0,1-1.73,2.6,5.379,5.379,0,0,1-4.147,1.787Zm-9.863-6.839c4.261,4.467,8.843,6.025,11.26,5.223a6.006,6.006,0,0,0,3.2-3.368,18.537,18.537,0,0,0-.149-14.365c-.928-1.821-2.142-2.818-3.425-2.818-1.844,0-3.448,1.844-4.307,4.57,3.436,3.78,5.693,8.419,5.5,11.386a3.315,3.315,0,0,1-1.123,2.451l-.057.046a2.264,2.264,0,0,1-2.428.069c-2.188-1.168-3.963-5.418-3.963-9.473a17.582,17.582,0,0,1,.481-4.089c-4.651-4.834-9.153-6.529-12.119-4.536-2.222,1.5-3.654,5.327-3.654,9.76,0,5.727,2.211,10.206,5.04,10.206,1.764,0,3.288-1.833,4.158-4.662a23,23,0,0,1-4.834-7.984c-.836-2.566-.733-4.639.252-5.682a2.27,2.27,0,0,1,2.6-.435c2.085.836,4.193,4,4.193,8.408A20.64,20.64,0,0,1,105.1,296.352Zm6.174-9.084a16.249,16.249,0,0,0-.241,2.8c0,3.837,1.7,7.411,3.207,8.225a.852.852,0,0,0,.939.023,1.956,1.956,0,0,0,.573-1.432c.172-2.406-1.684-6.289-4.479-9.611Zm-10.791-3.437a.631.631,0,0,0-.515.218c-.458.47-.71,1.879.069,4.261a21.022,21.022,0,0,0,3.918,6.747,20.479,20.479,0,0,0,.367-4.009c0-4.2-2.028-6.575-3.3-7.091a1.479,1.479,0,0,0-.538-.126Z" transform="translate(0 0)" fill="#48d6ac"/>
  </g>
</svg>
