<svg xmlns="http://www.w3.org/2000/svg" xmlns:xlink="http://www.w3.org/1999/xlink" width="316.842" height="205.993" viewBox="0 0 316.842 205.993">
  <defs>
    <clipPath id="clip-path">
      <rect id="Rectangle_12717" data-name="Rectangle 12717" width="294.822" height="205.993" fill="#d1f5ea"/>
    </clipPath>
    <clipPath id="clip-path-2">
      <rect id="Rectangle_12727" data-name="Rectangle 12727" width="316.842" height="127.435" fill="none"/>
    </clipPath>
  </defs>
  <g id="Group_22946" data-name="Group 22946" transform="translate(-19710.99 -1632)">
    <g id="Group_22937" data-name="Group 22937" transform="translate(19716 1632)">
      <g id="Group_22936" data-name="Group 22936" clip-path="url(#clip-path)">
        <path id="Path_390" data-name="Path 390" d="M212.912,2.087c13.426,2.431,28.172,8.548,32.472,21.5,4.459,13.426-4.354,28.308-.911,42.03,2.207,8.793,9.117,15.614,16.421,20.986s15.365,9.857,21.624,16.416a44.782,44.782,0,0,1-20.951,74.208c-13.11,3.467-26.992.843-40.525,1.712-16.107,1.034-31.439,6.991-46.421,13s-30.18,12.194-46.247,13.735S94.93,203.427,83.6,191.931c-8.469-8.594-12.957-20.761-22.39-28.283-10.355-8.257-24.651-9.367-36.383-15.514A47.276,47.276,0,0,1,.037,109a47.275,47.275,0,0,1,21.48-41.04c16.763-10.63,38.205-9.484,57.2-15.258,19.574-5.952,31.178-18.5,44.281-33.171,11.577-12.962,35.7-17,52.1-18.761a132.871,132.871,0,0,1,37.814,1.313" transform="translate(0 0)" fill="#d1f5ea"/>
      </g>
    </g>
    <path id="Path_391" data-name="Path 391" d="M54.782,195.153a6.032,6.032,0,1,1,6.032-6.032A6.041,6.041,0,0,1,54.782,195.153Zm0-10.471a4.44,4.44,0,1,0,4.44,4.44A4.444,4.444,0,0,0,54.782,184.682Z" transform="translate(19932.342 1527.878)" fill="#47d7ac"/>
    <path id="Path_392" data-name="Path 392" d="M210.782,28.153a6.032,6.032,0,1,1,6.032-6.032A6.041,6.041,0,0,1,210.782,28.153Zm0-10.471a4.44,4.44,0,1,0,4.44,4.44A4.444,4.444,0,0,0,210.782,17.682Z" transform="translate(19617.883 1633.432)" fill="#47d7ac"/>
    <path id="Path_393" data-name="Path 393" d="M210.782,28.153a6.032,6.032,0,1,1,6.032-6.032A6.041,6.041,0,0,1,210.782,28.153Zm0-10.471a4.44,4.44,0,1,0,4.44,4.44A4.444,4.444,0,0,0,210.782,17.682Z" transform="translate(19571.883 1779.12)" fill="#47d7ac"/>
    <g id="Group_22945" data-name="Group 22945" transform="translate(19710.99 1664.585)">
      <rect id="Rectangle_12718" data-name="Rectangle 12718" width="35.732" height="99.466" transform="translate(8.437 7.716)" fill="#f99068"/>
      <rect id="Rectangle_12719" data-name="Rectangle 12719" width="52.605" height="5.88" transform="translate(0 120.412)" fill="#06041f"/>
      <rect id="Rectangle_12720" data-name="Rectangle 12720" width="45.657" height="13.229" transform="translate(3.474 107.183)" fill="#ed7040"/>
      <rect id="Rectangle_12721" data-name="Rectangle 12721" width="275.927" height="13.229" transform="translate(34.243 22.906)" fill="#f2f2f2"/>
      <rect id="Rectangle_12722" data-name="Rectangle 12722" width="5.459" height="68.597" transform="translate(299.744 41.035)" fill="#f99068"/>
      <rect id="Rectangle_12723" data-name="Rectangle 12723" width="14.392" height="4.9" transform="translate(295.778 36.135)" fill="#f99068"/>
      <rect id="Rectangle_12724" data-name="Rectangle 12724" width="6.672" height="13.229" transform="translate(310.17 22.906)" fill="#06041f"/>
      <rect id="Rectangle_12725" data-name="Rectangle 12725" width="8.823" height="10.78" transform="translate(298.062 109.483)" fill="#ed7040"/>
      <rect id="Rectangle_12726" data-name="Rectangle 12726" width="8.823" height="7.173" transform="translate(298.062 120.262)" fill="#06041f"/>
      <g id="Group_22944" data-name="Group 22944">
        <g id="Group_22943" data-name="Group 22943" clip-path="url(#clip-path-2)">
          <path id="Path_410" data-name="Path 410" d="M59.728,59.184A11.829,11.829,0,1,1,47.9,47.506,11.753,11.753,0,0,1,59.728,59.184" transform="translate(-22.162 -29.187)" fill="#333"/>
          <path id="Path_411" data-name="Path 411" d="M61.383,63.575a9.037,9.037,0,1,1-9.036-8.922,8.98,8.98,0,0,1,9.036,8.922" transform="translate(-26.609 -33.578)" fill="#4d4d4d"/>
          <path id="Path_412" data-name="Path 412" d="M120.453,59.4H109.99L99.527,72.78h10.339Z" transform="translate(-61.148 -36.495)" fill="#d00"/>
          <path id="Path_413" data-name="Path 413" d="M180.506,58.889H170.043L159.58,72.268h10.339Z" transform="translate(-98.045 -36.181)" fill="#d00"/>
          <path id="Path_414" data-name="Path 414" d="M239.6,58.889H229.137L218.674,72.268h10.339Z" transform="translate(-134.351 -36.181)" fill="#d00"/>
          <path id="Path_415" data-name="Path 415" d="M298.694,58.889H288.231L277.768,72.268h10.339Z" transform="translate(-170.658 -36.181)" fill="#d00"/>
          <path id="Path_416" data-name="Path 416" d="M357.323,58.889H346.86L336.4,72.268h10.339Z" transform="translate(-206.68 -36.181)" fill="#d00"/>
          <path id="Path_417" data-name="Path 417" d="M472.121,59.207H461.658L451.2,72.586h10.339Z" transform="translate(-277.211 -36.376)" fill="#d00"/>
          <path id="Path_418" data-name="Path 418" d="M534.248,58.889H523.785L513.322,72.268h10.339Z" transform="translate(-315.381 -36.181)" fill="#d00"/>
          <path id="Path_419" data-name="Path 419" d="M591.376,58.889H580.913L570.45,72.268h10.339Z" transform="translate(-350.48 -36.181)" fill="#d00"/>
          <path id="Path_420" data-name="Path 420" d="M649.719,58.889H639.256L628.793,72.268h10.339Z" transform="translate(-386.325 -36.181)" fill="#d00"/>
          <path id="Path_421" data-name="Path 421" d="M710.208,58.889H699.744L689.281,72.268H699.62Z" transform="translate(-423.489 -36.181)" fill="#d00"/>
          <path id="Path_422" data-name="Path 422" d="M767.335,58.889H756.872L746.409,72.268h10.339Z" transform="translate(-458.588 -36.181)" fill="#d00"/>
          <path id="Path_423" data-name="Path 423" d="M404.9,62.194H362.4L344.3,31.1,362.4,0h42.5l18.284,30.856Z" transform="translate(-211.532 0)" fill="#d50000"/>
          <path id="Path_424" data-name="Path 424" d="M408.056,63.416H368.777L352.046,34.381,368.777,5.345h39.279l16.9,28.811Z" transform="translate(-216.294 -3.284)" fill="none" stroke="#fff" stroke-miterlimit="10" stroke-width="3"/>
          <path id="Path_425" data-name="Path 425" d="M400.082,67.875l-2.449.846a2.013,2.013,0,0,0-2.092-1.505q-1.707,0-1.707,1.143a1.045,1.045,0,0,0,.319.772,3.147,3.147,0,0,0,1.443.548,14.015,14.015,0,0,1,2.751.792,3.554,3.554,0,0,1,1.47,1.287,3.476,3.476,0,0,1,.6,1.985,4.025,4.025,0,0,1-1.281,2.973,5.225,5.225,0,0,1-3.8,1.255,5.649,5.649,0,0,1-3.215-.888,4.224,4.224,0,0,1-1.75-2.635l2.665-.623a2.272,2.272,0,0,0,2.5,1.775A2.3,2.3,0,0,0,397,75.2a1.183,1.183,0,0,0,.485-.944.992.992,0,0,0-.44-.864,5.2,5.2,0,0,0-1.7-.576,7.63,7.63,0,0,1-3.344-1.371,3.19,3.19,0,0,1-1-2.542,3.829,3.829,0,0,1,1.191-2.853,4.433,4.433,0,0,1,3.233-1.162q3.615,0,4.649,2.983" transform="translate(-239.84 -39.869)" fill="#fff"/>
          <path id="Path_426" data-name="Path 426" d="M427.356,65.4v2.51h-3.042V78.085H421.4V67.908h-3.061V65.4Z" transform="translate(-257.022 -40.18)" fill="#fff"/>
          <path id="Path_427" data-name="Path 427" d="M448.606,77.97a4.426,4.426,0,0,1-3.841-1.924,7.868,7.868,0,0,1-1.358-4.657,7.582,7.582,0,0,1,1.375-4.638,4.589,4.589,0,0,1,3.922-1.859,4.347,4.347,0,0,1,3.881,1.984,8.067,8.067,0,0,1,1.308,4.541,7.832,7.832,0,0,1-1.349,4.657,4.532,4.532,0,0,1-3.94,1.9m.081-10.652q-2.264,0-2.264,4.108t2.264,4.118q2.192,0,2.192-4.108t-2.192-4.118" transform="translate(-272.426 -39.869)" fill="#fff"/>
          <path id="Path_428" data-name="Path 428" d="M478.409,73.374v4.713h-2.926V65.4h4.843a6.706,6.706,0,0,1,2.48.358,3.77,3.77,0,0,1,2.21,3.536,4.857,4.857,0,0,1-.36,1.831,3.293,3.293,0,0,1-1.017,1.4,3.677,3.677,0,0,1-1.274.679,8.06,8.06,0,0,1-1.931.167Zm-.1-2.305h1.872a1.881,1.881,0,0,0,1.5-.511,1.763,1.763,0,0,0,.432-1.171,1.608,1.608,0,0,0-.482-1.227,2.061,2.061,0,0,0-1.463-.456H478.31Z" transform="translate(-292.133 -40.181)" fill="#fff"/>
        </g>
      </g>
    </g>
  </g>
</svg>
