<svg xmlns="http://www.w3.org/2000/svg" width="24" height="24" viewBox="0 0 24 24">
  <g id="search" transform="translate(0 -0.082)">
    <rect id="area" width="24" height="24" transform="translate(0 0.082)" fill="#5a5a5a" opacity="0"/>
    <path id="Union_1" data-name="Union 1" d="M20.454,21.531,12.986,14.2A8.989,8.989,0,0,1,8,15.841a7.9,7.9,0,0,1-5.69-2.307,7.981,7.981,0,0,1,0-11.226A7.9,7.9,0,0,1,8,0a7.88,7.88,0,0,1,8,8,7.954,7.954,0,0,1-1.658,4.955L21.685,20.3a.936.936,0,0,1,0,1.23,1.168,1.168,0,0,1-.616.307A.8.8,0,0,1,20.454,21.531ZM3.692,3.538a5.945,5.945,0,0,0,0,8.612A6.072,6.072,0,0,0,8,13.994a5.838,5.838,0,0,0,4.255-1.788.667.667,0,0,1,.05-.057,6.072,6.072,0,0,0,1.845-4.306A5.582,5.582,0,0,0,12.3,3.538,5.585,5.585,0,0,0,8,1.691,5.583,5.583,0,0,0,3.692,3.538Z" transform="translate(1.384 1.384)" fill="#5a5a5a"/>
  </g>
</svg>
