<svg xmlns="http://www.w3.org/2000/svg" width="340.56" height="205.302" viewBox="0 0 340.56 205.302">
  <g id="Group_22927" data-name="Group 22927" transform="translate(-16640.5 -2023)">
    <g id="Layer_3" transform="translate(16651.201 2023)">
      <path id="Path_342" data-name="Path 342" d="M238.218,2.077C253.243,4.5,269.739,10.6,274.553,23.5c4.985,13.384-4.868,28.214-1.022,41.885C276,74.148,283.733,80.952,291.9,86.3s17.195,9.822,24.2,16.363c11.959,11.164,16.675,28.086,11.968,42.939s-18.665,27.08-35.412,31.025c-14.667,3.458-30.2.839-45.345,1.709-18.02,1.03-35.179,6.964-51.934,12.953s-33.771,12.154-51.746,13.688-37.42-2.228-50.1-13.688c-9.476-8.569-14.5-20.691-25.048-28.19-11.583-8.233-27.585-9.335-40.71-15.46-16.02-7.483-26.985-22.9-27.729-39S8.8,76.368,24.08,67.736c18.755-10.6,42.745-9.455,63.992-15.2,21.9-5.933,34.883-18.439,49.54-33.061C150.567,6.549,177.561,2.532,195.912.775a166.357,166.357,0,0,1,42.306,1.31Z" transform="translate(-0.005 -0.002)" fill="#d1f5ea"/>
      <path id="Path_343" data-name="Path 343" d="M56.648,198.886a7.9,7.9,0,1,1,7.9-7.9A7.91,7.91,0,0,1,56.648,198.886Zm0-13.712a5.814,5.814,0,1,0,5.814,5.814A5.819,5.819,0,0,0,56.648,185.174Z" transform="translate(-9.823 -36.881)" fill="#47d7ac"/>
      <path id="Path_344" data-name="Path 344" d="M212.648,31.886a7.9,7.9,0,1,1,7.9-7.9A7.91,7.91,0,0,1,212.648,31.886Zm0-13.712a5.814,5.814,0,1,0,5.814,5.814A5.819,5.819,0,0,0,212.648,18.174Z" transform="translate(-20.057 -3.243)" fill="#47d7ac"/>
      <path id="Path_345" data-name="Path 345" d="M304.648,151.886a7.9,7.9,0,1,1,7.9-7.9A7.91,7.91,0,0,1,304.648,151.886Zm0-13.712a5.814,5.814,0,1,0,5.814,5.814A5.819,5.819,0,0,0,304.648,138.174Z" transform="translate(-23.746 -27.414)" fill="#bed5e7"/>
      <path id="Path_363" data-name="Path 363" d="M212.648,31.886a7.9,7.9,0,1,1,7.9-7.9A7.91,7.91,0,0,1,212.648,31.886Zm0-13.712a5.814,5.814,0,1,0,5.814,5.814A5.819,5.819,0,0,0,212.648,18.174Z" transform="translate(108.765 132.911)" fill="#47d7ac"/>
    </g>
    <g id="Layer_1-2" transform="translate(16641 2050.938)">
      <path id="Path_365" data-name="Path 365" d="M305.492,75.167l-31-4.144L256.709,39.938A27.145,27.145,0,0,0,233.217,26.32H199.311a5.963,5.963,0,0,0-5.952,5.976V99.981H97.306a5.968,5.968,0,0,0-5.976,5.976v18.208a5.968,5.968,0,0,0,5.976,5.976h11.459a26.721,26.721,0,0,0,53.277,0h82.426a26.721,26.721,0,0,0,53.277,0h6.144A11.94,11.94,0,0,0,315.827,118.2V86.992a11.933,11.933,0,0,0-10.335-11.825ZM135.4,142.142a14.12,14.12,0,1,1,14.12-14.12A14.117,14.117,0,0,1,135.4,142.142Zm117.185-71.9H213.958a1.192,1.192,0,0,1-1.2-1.187l-.056-24.7a1.194,1.194,0,0,1,1.2-1.2h19.324a10.233,10.233,0,0,1,8.861,5.132l11.546,20.168a1.193,1.193,0,0,1-1.036,1.785Zm18.527,71.9a14.12,14.12,0,1,1,14.12-14.12A14.117,14.117,0,0,1,271.116,142.142Z" transform="translate(-18.554 -5.347)" fill="#14294c" stroke="#06041f" stroke-width="1"/>
      <path id="Path_366" data-name="Path 366" d="M84.1,0h92.188a5.97,5.97,0,0,1,5.968,5.968V80.251a5.97,5.97,0,0,1-5.968,5.968H84.1a5.97,5.97,0,0,1-5.968-5.968V5.968A5.97,5.97,0,0,1,84.1,0Z" transform="translate(-15.872)" fill="#14294c" stroke="#06041f" stroke-width="1"/>
      <path id="Path_367" data-name="Path 367" d="M6.614,73.46H45.763a6.618,6.618,0,0,1,6.614,6.614h0a6.618,6.618,0,0,1-6.614,6.614H6.614A6.618,6.618,0,0,1,0,80.074H0A6.618,6.618,0,0,1,6.614,73.46Z" transform="translate(0 -14.923)" fill="#14294c" stroke="#06041f" stroke-width="1"/>
      <path id="Path_368" data-name="Path 368" d="M20.444,45.8H48.573a6.618,6.618,0,0,1,6.614,6.614h0a6.618,6.618,0,0,1-6.614,6.614H20.444a6.618,6.618,0,0,1-6.614-6.614h0A6.618,6.618,0,0,1,20.444,45.8Z" transform="translate(-2.81 -9.304)" fill="#14294c" stroke="#06041f" stroke-width="1"/>
      <path id="Path_369" data-name="Path 369" d="M34.274,18.13H51.382A6.618,6.618,0,0,1,58,24.744h0a6.618,6.618,0,0,1-6.614,6.614H34.274a6.618,6.618,0,0,1-6.614-6.614h0a6.618,6.618,0,0,1,6.614-6.614Z" transform="translate(-5.619 -3.683)" fill="#14294c" stroke="#06041f" stroke-width="1"/>
    </g>
    <g id="Layer_4" transform="translate(16720.943 2063.81)">
      <path id="Path_346" data-name="Path 346" d="M158.962,81.21V91.592L153.773,89l-5.193,2.6V81.21Z" transform="translate(-100.857 -50.083)" fill="#fff"/>
      <path id="Path_347" data-name="Path 347" d="M121.132,19.8V30.182l-5.193-2.592-5.189,2.592V19.8Z" transform="translate(-81.597 -18.818)" fill="#fff"/>
      <path id="Path_348" data-name="Path 348" d="M83.292,81.21V91.592L78.1,89l-5.189,2.6V81.21Z" transform="translate(-62.332 -50.083)" fill="#fff"/>
      <path id="Path_352" data-name="Path 352" d="M82.94,81.21v26.277H53.35V81.21h9.6V91.592L68.14,89l5.193,2.6V81.21Z" transform="translate(-52.373 -50.083)" fill="#fab46d"/>
      <path id="Path_353" data-name="Path 353" d="M81.927,107.45H52.342a.985.985,0,0,1-.982-.982V80.192a.985.985,0,0,1,.982-.982h9.6a.985.985,0,0,1,.982.982v8.8L66.7,87.1a.988.988,0,0,1,.879,0l3.775,1.885v-8.8a.985.985,0,0,1,.982-.982h9.6a.985.985,0,0,1,.982.982v26.277a.985.985,0,0,1-.982.982Zm-28.608-1.964H80.94V81.174H73.3v9.4a.98.98,0,0,1-.466.834.991.991,0,0,1-.957.044l-4.757-2.376L62.37,91.452a.985.985,0,0,1-1.424-.879v-9.4H53.309v24.313Z" transform="translate(-51.36 -49.065)" fill="#f99068"/>
      <path id="Path_354" data-name="Path 354" d="M158.605,81.21v26.277H129.02V81.21h9.6V91.592l5.193-2.6,5.189,2.6V81.21Z" transform="translate(-90.898 -50.083)" fill="#fab46d"/>
      <path id="Path_355" data-name="Path 355" d="M157.587,107.45H128a.985.985,0,0,1-.982-.982V80.192A.985.985,0,0,1,128,79.21h9.6a.985.985,0,0,1,.982.982v8.8L142.36,87.1a.988.988,0,0,1,.879,0l3.77,1.885v-8.8a.985.985,0,0,1,.982-.982h9.6a.985.985,0,0,1,.982.982v26.277a.985.985,0,0,1-.982.982Zm-28.6-1.964h27.622V81.174h-7.638v9.4a.98.98,0,0,1-.466.834.991.991,0,0,1-.957.044l-4.752-2.376-4.757,2.376a.985.985,0,0,1-1.424-.879v-9.4h-7.638v24.313Z" transform="translate(-89.88 -49.065)" fill="#f99068"/>
      <path id="Path_356" data-name="Path 356" d="M120.77,19.8V46.077H91.19V19.8h9.6V30.182l5.189-2.592,5.193,2.592V19.8Z" transform="translate(-71.638 -18.818)" fill="#fab46d"/>
      <path id="Path_357" data-name="Path 357" d="M119.752,46.04H90.172a.985.985,0,0,1-.982-.982V18.782a.985.985,0,0,1,.982-.982h9.6a.985.985,0,0,1,.982.982v8.8l3.77-1.885a.988.988,0,0,1,.879,0l3.775,1.885v-8.8a.985.985,0,0,1,.982-.982h9.6a.985.985,0,0,1,.982.982V45.058a.985.985,0,0,1-.982.982Zm-28.6-1.964H118.77V19.764h-7.633v9.4a.98.98,0,0,1-.466.834.991.991,0,0,1-.957.044l-4.757-2.376-4.752,2.376a.985.985,0,0,1-1.424-.879v-9.4H91.144V44.077Z" transform="translate(-70.62 -17.8)" fill="#f99068"/>
    </g>
  </g>
</svg>
