<svg xmlns="http://www.w3.org/2000/svg" width="280.897" height="205.302" viewBox="0 0 280.897 205.302">
  <g id="Group_22941" data-name="Group 22941" transform="translate(-15002 -1611)">
    <g id="product_ready" data-name="product ready" transform="translate(15002 1611)">
      <g id="Layer_3">
        <path id="Path_324" data-name="Path 324" d="M115.729,30.454C101.251,42,89.395,56.869,74.06,67.435c-20.209,13.93-46.036,18.176-60.514,39.937a52.663,52.663,0,0,0-3.464,51.172,52.47,52.47,0,0,0,42.418,28.8c16.805,1.251,32.2-6.146,48.664-7.537,47.119-3.986,91.3,45.173,138.148,24.168,19.614-8.794,34.567-27.532,40.231-48.089,7.109-25.813,1.137-54.074-12.2-77.286-13.569-23.613-34-44.284-58.454-56.542C183.747,9.455,154.7,7.723,129.519,21.219a91.064,91.064,0,0,0-13.8,9.235Z" transform="translate(-1.67 -3.918)" fill="#d1f5ea"/>
        <path id="Path_326" data-name="Path 326" d="M6.614,204.228a6.614,6.614,0,1,1,6.614-6.614A6.624,6.624,0,0,1,6.614,204.228Zm0-11.482a4.868,4.868,0,1,0,4.868,4.868,4.873,4.873,0,0,0-4.868-4.868Z" transform="translate(0 -63.271)" fill="#47d7ac"/>
        <path id="Path_327" data-name="Path 327" d="M163.614,13.228a6.614,6.614,0,1,1,6.614-6.614A6.624,6.624,0,0,1,163.614,13.228Zm0-11.482a4.868,4.868,0,1,0,4.868,4.868,4.873,4.873,0,0,0-4.868-4.868Z" transform="translate(-52.008)" fill="#47d7ac"/>
        <path id="Path_328" data-name="Path 328" d="M405.614,190.228a6.614,6.614,0,1,1,6.614-6.614A6.624,6.624,0,0,1,405.614,190.228Zm0-11.482a4.868,4.868,0,1,0,4.868,4.868A4.873,4.873,0,0,0,405.614,178.745Z" transform="translate(-132.174 -58.634)" fill="#47d7ac"/>
      </g>
    </g>
    <g id="Group_22940" data-name="Group 22940" transform="translate(-341.378 -119.269)">
      <path id="Path_394" data-name="Path 394" d="M629.526,404.023A19.729,19.729,0,1,1,649.1,384.295,19.674,19.674,0,0,1,629.526,404.023Zm0-27.605a7.878,7.878,0,1,0,7.724,7.877A7.81,7.81,0,0,0,629.526,376.418Z" transform="translate(14931.364 1493.526)" fill="#231f20"/>
      <path id="Path_395" data-name="Path 395" d="M261.619,404.023a19.729,19.729,0,1,1,19.575-19.728A19.674,19.674,0,0,1,261.619,404.023Zm0-27.605a7.878,7.878,0,1,0,7.723,7.877A7.81,7.81,0,0,0,261.619,376.418Z" transform="translate(15192.923 1493.526)" fill="#231f20"/>
      <path id="Path_396" data-name="Path 396" d="M83.626,404.023A19.729,19.729,0,1,1,103.2,384.295,19.674,19.674,0,0,1,83.626,404.023Zm0-27.605a7.878,7.878,0,1,0,7.723,7.877A7.81,7.81,0,0,0,83.626,376.418Z" transform="translate(15319.464 1493.526)" fill="#231f20"/>
      <path id="Path_397" data-name="Path 397" d="M461.242,409.832H430.284a3.159,3.159,0,0,1-3.15-3.15v-8.961a3.159,3.159,0,0,1,3.15-3.15h30.958a3.159,3.159,0,0,1,3.15,3.15v8.961a3.159,3.159,0,0,1-3.15,3.15" transform="translate(15061.335 1472.194)" fill="#14294c"/>
      <path id="Path_398" data-name="Path 398" d="M660.45,199.508c0-10.7.01-24.542.014-30.206a24.179,24.179,0,0,0-1.088-6.26c-1.954-6.582-6.037-20.336-8.048-27.157-.637-2.161-2.568-6.248-9.944-7.432-5.315-.854-28.354-1.924-40.516-2.444-2.676-.114-6.144,1.832-6.144,6.973V190.6s0,2.1,4.05,2.1H605.7s12.991-.13,21.832.7c0,0,1.333-.223,3.606,1.391s3.309,2.448,4.3,3.282A9.079,9.079,0,0,1,638.6,203.3c.84,3.171,1.284,4.061,1.679,5.785,0,0,.9,3.9,1.8,8.076h11.359c3.655,0,4.955-2.322,5.2-3.1s1.548-4.737,1.812-12.562c.01-.278,0-1.6,0-1.984m-49.931-36.973c-1.348-.361-4.242-1.189-4.935-1.46s-2.169-.593-2.212-4.894.081-14.289.324-18.268a2.418,2.418,0,0,1,2.06-2.474,32.607,32.607,0,0,1,4.761-.226c.915.008,1.091,1.041,1.125,1.7.031.624-.1,18.73,0,25.015,0,0,.219.967-1.128.606m35.859,1.742-24.521-.852c-2-.71-2.349-1.387-2.435-3.807V137.177a1.7,1.7,0,0,1,1.69-2,160.145,160.145,0,0,1,19.822,1.1c1.086.125,1.776.708,2.693,2.386,0,0,3.853,8.646,5.872,22.486,0,0,.754,3.173-3.122,3.13" transform="translate(14942.19 1663.128)" fill="#14294c"/>
      <path id="Path_399" data-name="Path 399" d="M46.062,363.981H27.953a1.639,1.639,0,0,0-1.639,1.639v12.039a1.639,1.639,0,0,0,1.639,1.639h6.7a22.639,22.639,0,0,1,11.405-15.316" transform="translate(15346.292 1493.942)" fill="#14294c"/>
      <path id="Path_400" data-name="Path 400" d="M198.888,363.981H168.907A22.638,22.638,0,0,1,180.312,379.3h7.171a22.639,22.639,0,0,1,11.405-15.316" transform="translate(15244.918 1493.942)" fill="#14294c"/>
      <path id="Path_401" data-name="Path 401" d="M346.9,363.981A22.639,22.639,0,0,1,358.305,379.3h62.181c1.605-10.5,10.842-15.316,10.842-15.316Z" transform="translate(15118.376 1493.942)" fill="#14294c"/>
      <path id="Path_402" data-name="Path 402" d="M168.658,337.461H1.286A1.29,1.29,0,0,1,0,336.175v-5.218a1.29,1.29,0,0,1,1.286-1.286H168.658a1.29,1.29,0,0,1,1.286,1.286v5.218a1.29,1.29,0,0,1-1.286,1.286" transform="translate(15365 1518.334)" fill="#14294c"/>
      <g id="Path_403" data-name="Path 403" transform="translate(15181.559 1745.514)" fill="#fab46d">
        <path d="M 307.4776916503906 98.62619018554688 L 260.6247863769531 89.43502044677734 L 285.3566284179688 12.87907409667969 L 328.7315368652344 32.83633041381836 L 307.4776916503906 98.62619018554688 Z" stroke="none"/>
        <path d="M 286.5672302246094 15.63763427734375 L 263.2204895019531 87.90609741210938 L 306.120361328125 96.32180023193359 L 326.2825317382812 33.91107177734375 L 286.5672302246094 15.63763427734375 M 284.1460266113281 10.12051391601562 L 331.1805114746094 31.76157379150391 L 308.8350219726562 100.9305725097656 L 258.0290832519531 90.96392822265625 L 284.1460266113281 10.12051391601562 Z" stroke="none" fill="#f99068"/>
      </g>
      <path id="Path_404" data-name="Path 404" d="M140.81,2.256,114.693,83.1,60.782,46.987a3.277,3.277,0,0,1-1.295-3.731L72.729,2.27A3.277,3.277,0,0,1,75.961,0Z" transform="translate(15322.821 1752.709)" fill="#231f20"/>
      <g id="Path_405" data-name="Path 405" transform="translate(15051.671 1689.834)" fill="#fab46d">
        <path d="M 444.3856811523438 152.0108642578125 L 462.969482421875 94.48585510253906 L 467.6189270019531 106.7773284912109 C 467.7210693359375 107.0474395751953 467.728515625 107.3475341796875 467.6398010253906 107.6222839355469 L 455.8585205078125 144.0897521972656 C 455.769775390625 144.3646850585938 455.5885009765625 144.6033782958984 455.3478393554688 144.7624664306641 L 444.3856811523438 152.0108642578125 Z" stroke="none"/>
        <path d="M 463.1181030273438 100.5316925048828 L 448.0433349609375 147.1946716308594 L 454.0331726074219 143.2340850830078 L 465.6588134765625 107.2483978271484 L 463.1181030273438 100.5316925048828 M 462.8208618164062 88.44000244140625 L 469.4895629882812 106.0697174072266 C 469.7526245117188 106.7652130126953 469.7714233398438 107.5294952392578 469.5430297851562 108.2368316650391 L 457.7616577148438 144.70458984375 C 457.5332946777344 145.4122009277344 457.07080078125 146.0209655761719 456.4507446289062 146.4308776855469 L 440.7279968261719 156.8270721435547 L 462.8208618164062 88.44000244140625 Z" stroke="none" fill="#f99068"/>
      </g>
      <path id="Path_406" data-name="Path 406" d="M522.168,183.537h-4.145l-8.392,25.979v19.833a2.681,2.681,0,0,0,2.68,2.681h9.857a2.681,2.681,0,0,0,2.681-2.681V186.218a2.681,2.681,0,0,0-2.681-2.681" transform="translate(15002.686 1622.226)" fill="#14294c"/>
      <path id="Path_407" data-name="Path 407" d="M42.85,183.984l27.29-.821a4.338,4.338,0,0,0,2.362-7.887L18.78,137.57a4.338,4.338,0,0,1-1.846-3.551V119.436a2.458,2.458,0,0,0-3.865-2.016L7.2,121.513a2.459,2.459,0,0,0-1.052,2.016v21.093a2.457,2.457,0,0,0,.22,1.015l15.483,34.138c.671,1.4,8,2.33,9.549,2.447l10.988,1.75a4.284,4.284,0,0,0,.46.011" transform="translate(15360.627 1669.548)" fill="#14294c"/>
      <path id="Path_408" data-name="Path 408" d="M45.641,40.734l6.812-21.087H35.762a27.511,27.511,0,0,0,9.879,21.087" transform="translate(15339.575 1738.741)" fill="#fab46d" stroke="#f99068" stroke-width="4"/>
      <g id="Path_409" data-name="Path 409" transform="translate(15322.821 1752.709)" fill="#fab46d">
        <path d="M 113.6043090820312 79.96292877197266 L 61.89545822143555 45.32548522949219 C 61.42372131347656 45.00946044921875 61.21613311767578 44.41164779663086 61.39068222045898 43.87173461914062 L 74.63169860839844 2.884909868240356 C 74.80261993408203 2.355559825897217 75.29069519042969 2.000097274780273 75.84630584716797 2.000097274780273 C 75.86138153076172 2.000097274780273 75.87647247314453 2.000359773635864 75.89162445068359 2.000884771347046 L 138.0920257568359 4.162668228149414 L 113.6043090820312 79.96292877197266 Z" stroke="none"/>
        <path d="M 76.36720275878906 4.018623352050781 L 63.46157836914062 43.96733093261719 L 112.5157699584961 76.82652282714844 L 135.374267578125 6.069419860839844 L 76.36720275878906 4.018623352050781 M 75.84633636474609 9.1552734375e-05 C 75.88452911376953 9.1552734375e-05 75.9227294921875 0.00075531005859375 75.96112823486328 0.0020904541015625 L 140.8097839355469 2.255912780761719 L 114.6928482055664 83.09932708740234 L 60.78239440917969 46.98714447021484 C 59.56600952148438 46.17227172851562 59.03730773925781 44.64947128295898 59.4876708984375 43.25648498535156 L 72.72853088378906 2.270088195800781 C 73.16651153564453 0.9136428833007812 74.42934417724609 9.1552734375e-05 75.84633636474609 9.1552734375e-05 Z" stroke="none" fill="#f99068"/>
      </g>
    </g>
  </g>
</svg>
