<svg xmlns="http://www.w3.org/2000/svg" xmlns:xlink="http://www.w3.org/1999/xlink" width="291.234" height="205.896" viewBox="0 0 291.234 205.896">
  <defs>
    <clipPath id="clip-path">
      <rect id="Rectangle_12714" data-name="Rectangle 12714" width="284.226" height="198.59" fill="#d1f5ea"/>
    </clipPath>
  </defs>
  <g id="Group_22934" data-name="Group 22934" transform="translate(-16518.229 -2266.712)">
    <g id="Group_22933" data-name="Group 22933" transform="translate(0 63.712)">
      <g id="Group_22932" data-name="Group 22932" transform="translate(16518.229 2203)">
        <g id="Group_22931" data-name="Group 22931" clip-path="url(#clip-path)">
          <path id="Path_371" data-name="Path 371" d="M205.259,2.012c12.944,2.344,27.159,8.241,31.305,20.725,4.3,12.944-4.2,27.29-.878,40.519,2.128,8.478,8.789,15.053,15.83,20.232s14.812,9.5,20.846,15.826a43.172,43.172,0,0,1-20.2,71.541c-12.639,3.343-26.022.813-39.069,1.65-15.528,1-30.309,6.74-44.753,12.528s-29.1,11.756-44.585,13.242S91.517,196.116,80.6,185.034c-8.165-8.285-12.491-20.015-21.586-27.267-9.983-7.961-23.765-9.031-35.075-14.956a45.576,45.576,0,0,1-23.9-37.723A45.579,45.579,0,0,1,20.743,65.522c16.16-10.248,36.833-9.144,55.14-14.71,18.871-5.738,30.058-17.835,42.689-31.979C129.734,6.336,152.991,2.446,168.8.746a128.1,128.1,0,0,1,36.455,1.266" transform="translate(0 0)" fill="#d1f5ea"/>
        </g>
      </g>
      <path id="Path_343" data-name="Path 343" d="M54.782,195.153a6.032,6.032,0,1,1,6.032-6.032A6.041,6.041,0,0,1,54.782,195.153Zm0-10.471a4.44,4.44,0,1,0,4.44,4.44A4.444,4.444,0,0,0,54.782,184.682Z" transform="translate(16668.57 2050.617)" fill="#47d7ac"/>
      <path id="Path_344" data-name="Path 344" d="M210.782,28.153a6.032,6.032,0,1,1,6.032-6.032A6.041,6.041,0,0,1,210.782,28.153Zm0-10.471a4.44,4.44,0,1,0,4.44,4.44A4.444,4.444,0,0,0,210.782,17.682Z" transform="translate(16343.111 2241.779)" fill="#47d7ac"/>
      <path id="Path_363" data-name="Path 363" d="M210.782,28.153a6.032,6.032,0,1,1,6.032-6.032A6.041,6.041,0,0,1,210.782,28.153Zm0-10.471a4.44,4.44,0,1,0,4.44,4.44A4.444,4.444,0,0,0,210.782,17.682Z" transform="translate(16343.111 2338.12)" fill="#47d7ac"/>
      <rect id="Rectangle_12709" data-name="Rectangle 12709" width="40.734" height="10.033" transform="translate(16723.924 2383.734)" fill="#14294c"/>
      <path id="Path_349" data-name="Path 349" d="M102.033,152.506H61.3a.573.573,0,0,1-.572-.572V141.9a.573.573,0,0,1,.572-.572h40.734a.573.573,0,0,1,.572.572v10.033a.573.573,0,0,1-.572.572Zm-40.159-1.143h39.591v-8.889H61.873Z" transform="translate(16662.621 2241.833)" fill="#06041f"/>
      <path id="Path_350" data-name="Path 350" d="M285.26,102.34h8.552a12.815,12.815,0,0,1,12.808,12.808v2.544a6.4,6.4,0,0,1-6.394,6.394H285.263V102.34h0Z" transform="translate(16502.27 2269.678)" fill="#14294c"/>
      <path id="Path_351" data-name="Path 351" d="M298.795,123.24H283.832a.573.573,0,0,1-.572-.572V100.922a.573.573,0,0,1,.572-.572h8.552a13.4,13.4,0,0,1,13.38,13.38v2.544a6.973,6.973,0,0,1-6.966,6.966ZM284.4,122.1h14.392a5.83,5.83,0,0,0,5.822-5.822V113.73a12.251,12.251,0,0,0-12.237-12.237H284.4v20.6Z" transform="translate(16503.699 2271.099)" fill="#06041f"/>
      <path id="Path_364" data-name="Path 364" d="M10.033,0A10.033,10.033,0,1,1,0,10.033,10.033,10.033,0,0,1,10.033,0Z" transform="translate(16726.361 2394.707) rotate(-45)" fill="#14294c"/>
      <path id="Path_358" data-name="Path 358" d="M94.414,165.829a10.6,10.6,0,1,1,10.6-10.6A10.615,10.615,0,0,1,94.414,165.829Zm0-20.063a9.461,9.461,0,1,0,9.461,9.461A9.472,9.472,0,0,0,94.414,145.766Z" transform="translate(16646.139 2239.483)" fill="#f8f8f8"/>
      <ellipse id="Ellipse_100" data-name="Ellipse 100" cx="5.454" cy="5.454" rx="5.454" ry="5.454" transform="translate(16735.1 2389.254)" fill="#fff"/>
      <path id="Path_359" data-name="Path 359" d="M199.7,42.04h5.579a23.518,23.518,0,0,1,23.507,23.507V81.022H199.7V42.04h0Z" transform="translate(16563.373 2312.742)" fill="#14294c"/>
      <path id="Path_360" data-name="Path 360" d="M227.348,80.168H198.262a.573.573,0,0,1-.572-.572V40.612a.573.573,0,0,1,.572-.572h5.579A24.106,24.106,0,0,1,227.92,64.119V79.594a.573.573,0,0,1-.572.572Zm-28.512-1.143h27.943v-14.9a22.961,22.961,0,0,0-22.935-22.935h-5.008Z" transform="translate(16564.811 2314.17)" fill="#06041f"/>
      <circle id="Ellipse_101" data-name="Ellipse 101" cx="10.033" cy="10.033" r="10.033" transform="translate(16777.328 2394.708) rotate(-45)" fill="#14294c"/>
      <path id="Path_361" data-name="Path 361" d="M272.714,165.829a10.6,10.6,0,1,1,10.6-10.6A10.615,10.615,0,0,1,272.714,165.829Zm0-20.063a9.461,9.461,0,1,0,9.461,9.461A9.472,9.472,0,0,0,272.714,145.766Z" transform="translate(16518.801 2239.483)" fill="#fff"/>
      <ellipse id="Ellipse_102" data-name="Ellipse 102" cx="5.454" cy="5.454" rx="5.454" ry="5.454" transform="translate(16786.063 2389.254)" fill="#fff"/>
      <path id="Path_362" data-name="Path 362" d="M223.833,63h2.8a11.785,11.785,0,0,1,11.779,11.779v2.8H223.83V63h0Z" transform="translate(16546.141 2297.773)" fill="#fff"/>
      <g id="Group_22930" data-name="Group 22930" transform="translate(16565.387 2220.891)">
        <g id="Group_22929" data-name="Group 22929" transform="translate(53.679 83.303)">
          <path id="Path_346" data-name="Path 346" d="M161.479,81.21v12.9l-6.446-3.226-6.452,3.226V81.21Z" transform="translate(-89.29 -42.539)" fill="#fff"/>
          <path id="Path_347" data-name="Path 347" d="M123.649,19.8V32.7l-6.452-3.22L110.75,32.7V19.8Z" transform="translate(-74.53 -18.58)" fill="#fff"/>
          <path id="Path_348" data-name="Path 348" d="M85.809,81.21v12.9l-6.452-3.226L72.91,94.109V81.21Z" transform="translate(-59.768 -42.539)" fill="#fff"/>
          <path id="Path_352" data-name="Path 352" d="M90.112,81.21v32.646H53.35V81.21H65.279v12.9l6.446-3.226,6.452,3.226V81.21Z" transform="translate(-52.137 -42.539)" fill="#fab46d"/>
          <path id="Path_353" data-name="Path 353" d="M89.336,114.3H52.58a1.223,1.223,0,0,1-1.22-1.22V80.43a1.223,1.223,0,0,1,1.22-1.22H64.509a1.223,1.223,0,0,1,1.22,1.22V91.358l4.684-2.342a1.227,1.227,0,0,1,1.092,0l4.69,2.342V80.43a1.223,1.223,0,0,1,1.22-1.22H89.342a1.223,1.223,0,0,1,1.22,1.22v32.646a1.223,1.223,0,0,1-1.22,1.22Zm-35.543-2.439H88.11V81.649H78.621V93.328a1.218,1.218,0,0,1-.579,1.037,1.232,1.232,0,0,1-1.189.055l-5.91-2.952-5.9,2.952a1.223,1.223,0,0,1-1.769-1.092V81.649H53.781v30.206Z" transform="translate(-51.36 -41.758)" fill="#f99068"/>
          <path id="Path_354" data-name="Path 354" d="M165.776,81.21v32.646H129.02V81.21h11.929v12.9l6.452-3.226,6.446,3.226V81.21Z" transform="translate(-81.658 -42.539)" fill="#fab46d"/>
          <path id="Path_355" data-name="Path 355" d="M165,114.3H128.24a1.223,1.223,0,0,1-1.22-1.22V80.43a1.223,1.223,0,0,1,1.22-1.22h11.929a1.223,1.223,0,0,1,1.22,1.22V91.358l4.69-2.342a1.227,1.227,0,0,1,1.092,0l4.684,2.342V80.43a1.223,1.223,0,0,1,1.22-1.22H165a1.223,1.223,0,0,1,1.22,1.22v32.646A1.223,1.223,0,0,1,165,114.3Zm-35.537-2.439h34.317V81.649h-9.489V93.328a1.218,1.218,0,0,1-.579,1.037,1.232,1.232,0,0,1-1.189.055l-5.9-2.952-5.91,2.952a1.223,1.223,0,0,1-1.769-1.092V81.649h-9.489v30.206Z" transform="translate(-80.878 -41.758)" fill="#f99068"/>
          <path id="Path_356" data-name="Path 356" d="M127.94,19.8V52.446H91.19V19.8h11.929V32.7l6.446-3.22,6.452,3.22V19.8Z" transform="translate(-66.899 -18.58)" fill="#fab46d"/>
          <path id="Path_357" data-name="Path 357" d="M127.16,52.885H90.41a1.223,1.223,0,0,1-1.22-1.22V19.02a1.223,1.223,0,0,1,1.22-1.22h11.929a1.223,1.223,0,0,1,1.22,1.22V29.948l4.684-2.342a1.227,1.227,0,0,1,1.092,0l4.69,2.342V19.02a1.223,1.223,0,0,1,1.22-1.22h11.923a1.223,1.223,0,0,1,1.22,1.22V51.666a1.223,1.223,0,0,1-1.22,1.22Zm-35.53-2.439H125.94V20.239h-9.483V31.918a1.218,1.218,0,0,1-.579,1.037,1.232,1.232,0,0,1-1.189.055l-5.91-2.952-5.9,2.952a1.223,1.223,0,0,1-1.769-1.092V20.239H91.617V50.446Z" transform="translate(-66.119 -17.8)" fill="#f99068"/>
        </g>
        <path id="Path_370" data-name="Path 370" d="M184.591,155.84c4.483,0,8.11-3.319,8.11-7.405V52.856a13.5,13.5,0,0,0-7.965-12.063L103.289,1.576a16.179,16.179,0,0,0-13.93,0L7.965,40.792A13.506,13.506,0,0,0,0,52.856v95.579c0,4.093,3.635,7.405,8.11,7.405H50.3V76.731a4.778,4.778,0,0,1,4.979-4.546h81.012a4.778,4.778,0,0,1,4.979,4.546V155.84h43.316ZM108.153,46.677H84.563a4.778,4.778,0,0,1-4.979-4.546,4.778,4.778,0,0,1,4.979-4.546h23.59a4.778,4.778,0,0,1,4.979,4.546A4.778,4.778,0,0,1,108.153,46.677Z" transform="translate(0 0)" fill="#14294c"/>
      </g>
    </g>
  </g>
</svg>
